<svg xmlns="http://www.w3.org/2000/svg" viewBox="0 0 640 400" width="640" height="400" role="img"><title>Function Junction</title><rect x="0" y="0" width="640" height="400" rx="0" fill="#f5f2ee"/><rect x="14" y="12" width="612" height="376" rx="8" fill="#ffffff"/><rect x="14.5" y="12.5" width="611" height="375" rx="8" fill="none" stroke="#d5cec6"/><rect x="14" y="12" width="612" height="26" rx="8" fill="#fafaf8"/><rect x="14" y="30" width="612" height="8" rx="0" fill="#fafaf8"/><rect x="14" y="38" width="612" height="1" rx="0" fill="#e6e1db"/><circle cx="30" cy="25" r="3.5" fill="#d5cec6"/><circle cx="42" cy="25" r="3.5" fill="#d5cec6"/><circle cx="54" cy="25" r="3.5" fill="#d5cec6"/><rect x="70" y="19" width="4" height="12" rx="2" fill="#007dc3"/><text x="80" y="29" font-family="Oxygen, system-ui, sans-serif" font-size="10.5" font-weight="700" fill="#3e3832" text-anchor="start">Function Junction</text><rect x="14" y="39" width="74" height="349" rx="0" fill="#fafaf8"/><rect x="88" y="39" width="1" height="349" rx="0" fill="#e6e1db"/><rect x="22" y="40" width="58" height="18" rx="4" fill="#007dc3" opacity="0.14"/><rect x="28" y="46" width="6" height="6" rx="1.5" fill="#007dc3"/><rect x="40" y="46.5" width="30" height="5" rx="2" fill="#007dc3" opacity="0.55"/><rect x="28" y="68" width="6" height="6" rx="1.5" fill="#9d9389"/><rect x="40" y="68.5" width="34" height="5" rx="2" fill="#9d9389" opacity="0.55"/><rect x="28" y="90" width="6" height="6" rx="1.5" fill="#9d9389"/><rect x="40" y="90.5" width="24" height="5" rx="2" fill="#9d9389" opacity="0.55"/><rect x="28" y="112" width="6" height="6" rx="1.5" fill="#9d9389"/><rect x="40" y="112.5" width="30" height="5" rx="2" fill="#9d9389" opacity="0.55"/><rect x="28" y="134" width="6" height="6" rx="1.5" fill="#9d9389"/><rect x="40" y="134.5" width="20" height="5" rx="2" fill="#9d9389" opacity="0.55"/><rect x="102" y="50" width="428" height="44" rx="6" fill="#ffffff"/><rect x="102.5" y="50.5" width="427" height="43" rx="6" fill="none" stroke="#e6e1db"/><text x="114" y="70" font-family="Oxygen, system-ui, sans-serif" font-size="12" font-weight="700" fill="#1a1714" text-anchor="start">P0ABE1 - flavodoxin 1</text><text x="114" y="84" font-family="Oxygen, system-ui, sans-serif" font-size="8" font-weight="400" fill="#776d64" text-anchor="start">Escherichia coli K-12 - 176 aa</text><rect x="452" y="62" width="44.8" height="14" rx="7" fill="#5e9732" opacity="0.16"/><text x="474.4" y="72" font-family="Oxygen, system-ui, sans-serif" font-size="7.5" font-weight="700" fill="#5e9732" text-anchor="middle">reviewed</text><rect x="102" y="102" width="262" height="148" rx="6" fill="#ffffff"/><rect x="102.5" y="102.5" width="261" height="147" rx="6" fill="none" stroke="#e6e1db"/><text x="112" y="118" font-family="Oxygen, system-ui, sans-serif" font-size="8.5" font-weight="700" fill="#776d64" text-anchor="start">EVIDENCE LINES</text><text x="114" y="130" font-family="Oxygen, system-ui, sans-serif" font-size="8" font-weight="400" fill="#6a6158" text-anchor="start">function</text><text x="114" y="146" font-family="Oxygen, system-ui, sans-serif" font-size="8" font-weight="400" fill="#6a6158" text-anchor="start">structure</text><text x="114" y="162" font-family="Oxygen, system-ui, sans-serif" font-size="8" font-weight="400" fill="#6a6158" text-anchor="start">homologs</text><text x="114" y="178" font-family="Oxygen, system-ui, sans-serif" font-size="8" font-weight="400" fill="#6a6158" text-anchor="start">phenotype</text><text x="114" y="194" font-family="Oxygen, system-ui, sans-serif" font-size="8" font-weight="400" fill="#6a6158" text-anchor="start">biogeography</text><text x="114" y="210" font-family="Oxygen, system-ui, sans-serif" font-size="8" font-weight="400" fill="#6a6158" text-anchor="start">expression</text><text x="114" y="226" font-family="Oxygen, system-ui, sans-serif" font-size="8" font-weight="400" fill="#6a6158" text-anchor="start">interactions</text><rect x="186" y="122" width="166" height="8" rx="2" fill="#e6e1db"/><rect x="186" y="122" width="152.72" height="8" rx="2" fill="#007dc3"/><rect x="186" y="138" width="166" height="8" rx="2" fill="#e6e1db"/><rect x="186" y="138" width="129.48" height="8" rx="2" fill="#007dc3"/><rect x="186" y="154" width="166" height="8" rx="2" fill="#e6e1db"/><rect x="186" y="154" width="142.76" height="8" rx="2" fill="#007dc3"/><rect x="186" y="170" width="166" height="8" rx="2" fill="#e6e1db"/><rect x="186" y="170" width="73.04" height="8" rx="2" fill="#007dc3"/><rect x="186" y="186" width="166" height="8" rx="2" fill="#e6e1db"/><rect x="186" y="186" width="101.26" height="8" rx="2" fill="#007dc3"/><rect x="186" y="202" width="166" height="8" rx="2" fill="#e6e1db"/><rect x="186" y="202" width="58.1" height="8" rx="2" fill="#007dc3"/><rect x="186" y="218" width="166" height="8" rx="2" fill="#e6e1db"/><rect x="186" y="218" width="116.2" height="8" rx="2" fill="#007dc3"/><rect x="374" y="102" width="156" height="148" rx="6" fill="#ffffff"/><rect x="374.5" y="102.5" width="155" height="147" rx="6" fill="none" stroke="#e6e1db"/><text x="384" y="118" font-family="Oxygen, system-ui, sans-serif" font-size="8.5" font-weight="700" fill="#776d64" text-anchor="start">SCORES</text><circle cx="414" cy="152" r="22" fill="none" stroke="#e6e1db" stroke-width="6"/><circle cx="414" cy="152" r="22" fill="none" stroke="#66489d" stroke-width="6" stroke-linecap="round" stroke-dasharray="102.29 138.23" transform="rotate(-90 414 152)"/><text x="414" y="156" font-family="Oxygen, system-ui, sans-serif" font-size="11" font-weight="700" fill="#3e3832" text-anchor="middle">0.74</text><text x="414" y="186" font-family="Oxygen, system-ui, sans-serif" font-size="7.5" font-weight="400" fill="#776d64" text-anchor="middle">novelty</text><circle cx="486" cy="152" r="22" fill="none" stroke="#e6e1db" stroke-width="6"/><circle cx="486" cy="152" r="22" fill="none" stroke="#009688" stroke-width="6" stroke-linecap="round" stroke-dasharray="56.67 138.23" transform="rotate(-90 486 152)"/><text x="486" y="156" font-family="Oxygen, system-ui, sans-serif" font-size="11" font-weight="700" fill="#3e3832" text-anchor="middle">0.41</text><text x="486" y="186" font-family="Oxygen, system-ui, sans-serif" font-size="7.5" font-weight="400" fill="#776d64" text-anchor="middle">info-density</text><rect x="386" y="204" width="132" height="1" rx="0" fill="#e6e1db"/><rect x="386" y="216" width="120" height="4" rx="2" fill="#9d9389" opacity="0.5"/><rect x="386" y="227" width="96" height="4" rx="2" fill="#9d9389" opacity="0.5"/><rect x="102" y="262" width="428" height="76" rx="6" fill="#ffffff"/><rect x="102.5" y="262.5" width="427" height="75" rx="6" fill="none" stroke="#e6e1db"/><text x="112" y="278" font-family="Oxygen, system-ui, sans-serif" font-size="8.5" font-weight="700" fill="#776d64" text-anchor="start">STRUCTURE &amp; HOMOLOGS</text><g transform="translate(120 282)"><line x1="40.87" y1="27.63" x2="6.19" y2="25.83" stroke="#d5cec6" stroke-width="1"/><line x1="40.87" y1="27.63" x2="34.87" y2="8.57" stroke="#d5cec6" stroke-width="1"/><line x1="16.98" y1="6.68" x2="16.18" y2="10.72" stroke="#d5cec6" stroke-width="1"/><line x1="1.33" y1="30.33" x2="16.74" y2="30.64" stroke="#d5cec6" stroke-width="1"/><line x1="34.87" y1="8.57" x2="16.18" y2="10.72" stroke="#d5cec6" stroke-width="1"/><line x1="34.87" y1="8.57" x2="53.72" y2="32.33" stroke="#d5cec6" stroke-width="1"/><line x1="58.41" y1="3.2" x2="5.08" y2="16.42" stroke="#d5cec6" stroke-width="1"/><line x1="122.17" y1="7" x2="34.87" y2="8.57" stroke="#d5cec6" stroke-width="1"/><line x1="16.74" y1="30.64" x2="40.87" y2="27.63" stroke="#d5cec6" stroke-width="1"/><line x1="83.83" y1="17.58" x2="6.19" y2="25.83" stroke="#d5cec6" stroke-width="1"/><line x1="83.83" y1="17.58" x2="16.98" y2="6.68" stroke="#d5cec6" stroke-width="1"/><line x1="90.74" y1="35.62" x2="1.33" y2="30.33" stroke="#d5cec6" stroke-width="1"/><line x1="16.18" y1="10.72" x2="122.17" y2="7" stroke="#d5cec6" stroke-width="1"/><line x1="16.18" y1="10.72" x2="83.83" y2="17.58" stroke="#d5cec6" stroke-width="1"/><line x1="102.35" y1="33.69" x2="94.48" y2="23.52" stroke="#d5cec6" stroke-width="1"/><line x1="102.35" y1="33.69" x2="6.19" y2="25.83" stroke="#d5cec6" stroke-width="1"/><line x1="94.48" y1="23.52" x2="40.87" y2="27.63" stroke="#d5cec6" stroke-width="1"/><line x1="94.48" y1="23.52" x2="6.19" y2="25.83" stroke="#d5cec6" stroke-width="1"/><line x1="6.19" y1="25.83" x2="53.72" y2="32.33" stroke="#d5cec6" stroke-width="1"/><line x1="5.64" y1="38.21" x2="16.98" y2="6.68" stroke="#d5cec6" stroke-width="1"/><line x1="5.08" y1="16.42" x2="16.18" y2="10.72" stroke="#d5cec6" stroke-width="1"/><circle cx="40.87" cy="27.63" r="2.79" fill="#72ccd2" opacity="0.85"/><circle cx="16.98" cy="6.68" r="4.46" fill="#72ccd2" opacity="0.85"/><circle cx="1.33" cy="30.33" r="2.6" fill="#007dc3" opacity="0.85"/><circle cx="53.72" cy="32.33" r="6.22" fill="#007dc3" opacity="0.85"/><circle cx="34.87" cy="8.57" r="4.49" fill="#007dc3" opacity="0.85"/><circle cx="58.41" cy="3.2" r="5.76" fill="#009688" opacity="0.85"/><circle cx="122.17" cy="7" r="5.81" fill="#009688" opacity="0.85"/><circle cx="16.74" cy="30.64" r="5.55" fill="#72ccd2" opacity="0.85"/><circle cx="83.83" cy="17.58" r="5.72" fill="#009688" opacity="0.85"/><circle cx="90.74" cy="35.62" r="5.39" fill="#007dc3" opacity="0.85"/><circle cx="16.18" cy="10.72" r="3.27" fill="#72ccd2" opacity="0.85"/><circle cx="102.35" cy="33.69" r="3.02" fill="#007dc3" opacity="0.85"/><circle cx="94.48" cy="23.52" r="5.52" fill="#007dc3" opacity="0.85"/><circle cx="6.19" cy="25.83" r="5.4" fill="#009688" opacity="0.85"/><circle cx="5.64" cy="38.21" r="5.25" fill="#007dc3" opacity="0.85"/><circle cx="5.08" cy="16.42" r="4.69" fill="#007dc3" opacity="0.85"/></g><rect x="272" y="282" width="6.8" height="8" rx="1" fill="#72ccd2" opacity="0.67"/><rect x="272" y="291.2" width="6.8" height="8" rx="1" fill="#007dc3" opacity="0.42"/><rect x="272" y="300.4" width="6.8" height="8" rx="1" fill="#009688" opacity="0.91"/><rect x="272" y="309.6" width="6.8" height="8" rx="1" fill="#009688" opacity="0.85"/><rect x="272" y="318.8" width="6.8" height="8" rx="1" fill="#007dc3" opacity="0.39"/><rect x="280" y="282" width="6.8" height="8" rx="1" fill="#72ccd2" opacity="0.61"/><rect x="280" y="291.2" width="6.8" height="8" rx="1" fill="#007dc3" opacity="0.36"/><rect x="280" y="300.4" width="6.8" height="8" rx="1" fill="#72ccd2" opacity="0.58"/><rect x="280" y="309.6" width="6.8" height="8" rx="1" fill="#007dc3" opacity="0.3"/><rect x="280" y="318.8" width="6.8" height="8" rx="1" fill="#72ccd2" opacity="0.68"/><rect x="288" y="282" width="6.8" height="8" rx="1" fill="#007dc3" opacity="0.3"/><rect x="288" y="291.2" width="6.8" height="8" rx="1" fill="#007dc3" opacity="0.32"/><rect x="288" y="300.4" width="6.8" height="8" rx="1" fill="#007dc3" opacity="0.5"/><rect x="288" y="309.6" width="6.8" height="8" rx="1" fill="#72ccd2" opacity="0.51"/><rect x="288" y="318.8" width="6.8" height="8" rx="1" fill="#72ccd2" opacity="0.64"/><rect x="296" y="282" width="6.8" height="8" rx="1" fill="#009688" opacity="0.97"/><rect x="296" y="291.2" width="6.8" height="8" rx="1" fill="#007dc3" opacity="0.34"/><rect x="296" y="300.4" width="6.8" height="8" rx="1" fill="#009688" opacity="0.95"/><rect x="296" y="309.6" width="6.8" height="8" rx="1" fill="#009688" opacity="0.92"/><rect x="296" y="318.8" width="6.8" height="8" rx="1" fill="#007dc3" opacity="0.29"/><rect x="304" y="282" width="6.8" height="8" rx="1" fill="#007dc3" opacity="0.38"/><rect x="304" y="291.2" width="6.8" height="8" rx="1" fill="#007dc3" opacity="0.4"/><rect x="304" y="300.4" width="6.8" height="8" rx="1" fill="#007dc3" opacity="0.31"/><rect x="304" y="309.6" width="6.8" height="8" rx="1" fill="#007dc3" opacity="0.39"/><rect x="304" y="318.8" width="6.8" height="8" rx="1" fill="#009688" opacity="0.87"/><rect x="312" y="282" width="6.8" height="8" rx="1" fill="#009688" opacity="0.93"/><rect x="312" y="291.2" width="6.8" height="8" rx="1" fill="#007dc3" opacity="0.31"/><rect x="312" y="300.4" width="6.8" height="8" rx="1" fill="#72ccd2" opacity="0.72"/><rect x="312" y="309.6" width="6.8" height="8" rx="1" fill="#009688" opacity="0.79"/><rect x="312" y="318.8" width="6.8" height="8" rx="1" fill="#007dc3" opacity="0.3"/><rect x="320" y="282" width="6.8" height="8" rx="1" fill="#007dc3" opacity="0.3"/><rect x="320" y="291.2" width="6.8" height="8" rx="1" fill="#007dc3" opacity="0.42"/><rect x="320" y="300.4" width="6.8" height="8" rx="1" fill="#009688" opacity="0.99"/><rect x="320" y="309.6" width="6.8" height="8" rx="1" fill="#007dc3" opacity="0.47"/><rect x="320" y="318.8" width="6.8" height="8" rx="1" fill="#72ccd2" opacity="0.59"/><rect x="328" y="282" width="6.8" height="8" rx="1" fill="#007dc3" opacity="0.29"/><rect x="328" y="291.2" width="6.8" height="8" rx="1" fill="#72ccd2" opacity="0.74"/><rect x="328" y="300.4" width="6.8" height="8" rx="1" fill="#72ccd2" opacity="0.55"/><rect x="328" y="309.6" width="6.8" height="8" rx="1" fill="#007dc3" opacity="0.26"/><rect x="328" y="318.8" width="6.8" height="8" rx="1" fill="#72ccd2" opacity="0.7"/><rect x="336" y="282" width="6.8" height="8" rx="1" fill="#72ccd2" opacity="0.7"/><rect x="336" y="291.2" width="6.8" height="8" rx="1" fill="#007dc3" opacity="0.44"/><rect x="336" y="300.4" width="6.8" height="8" rx="1" fill="#72ccd2" opacity="0.61"/><rect x="336" y="309.6" width="6.8" height="8" rx="1" fill="#007dc3" opacity="0.26"/><rect x="336" y="318.8" width="6.8" height="8" rx="1" fill="#007dc3" opacity="0.35"/><rect x="344" y="282" width="6.8" height="8" rx="1" fill="#009688" opacity="0.89"/><rect x="344" y="291.2" width="6.8" height="8" rx="1" fill="#009688" opacity="0.9"/><rect x="344" y="300.4" width="6.8" height="8" rx="1" fill="#007dc3" opacity="0.47"/><rect x="344" y="309.6" width="6.8" height="8" rx="1" fill="#72ccd2" opacity="0.51"/><rect x="344" y="318.8" width="6.8" height="8" rx="1" fill="#007dc3" opacity="0.38"/><rect x="352" y="282" width="6.8" height="8" rx="1" fill="#72ccd2" opacity="0.59"/><rect x="352" y="291.2" width="6.8" height="8" rx="1" fill="#007dc3" opacity="0.27"/><rect x="352" y="300.4" width="6.8" height="8" rx="1" fill="#72ccd2" opacity="0.64"/><rect x="352" y="309.6" width="6.8" height="8" rx="1" fill="#009688" opacity="0.93"/><rect x="352" y="318.8" width="6.8" height="8" rx="1" fill="#72ccd2" opacity="0.68"/><rect x="360" y="282" width="6.8" height="8" rx="1" fill="#007dc3" opacity="0.38"/><rect x="360" y="291.2" width="6.8" height="8" rx="1" fill="#007dc3" opacity="0.43"/><rect x="360" y="300.4" width="6.8" height="8" rx="1" fill="#72ccd2" opacity="0.64"/><rect x="360" y="309.6" width="6.8" height="8" rx="1" fill="#007dc3" opacity="0.3"/><rect x="360" y="318.8" width="6.8" height="8" rx="1" fill="#007dc3" opacity="0.44"/><rect x="368" y="282" width="6.8" height="8" rx="1" fill="#007dc3" opacity="0.47"/><rect x="368" y="291.2" width="6.8" height="8" rx="1" fill="#007dc3" opacity="0.38"/><rect x="368" y="300.4" width="6.8" height="8" rx="1" fill="#72ccd2" opacity="0.52"/><rect x="368" y="309.6" width="6.8" height="8" rx="1" fill="#72ccd2" opacity="0.67"/><rect x="368" y="318.8" width="6.8" height="8" rx="1" fill="#007dc3" opacity="0.41"/><rect x="376" y="282" width="6.8" height="8" rx="1" fill="#007dc3" opacity="0.46"/><rect x="376" y="291.2" width="6.8" height="8" rx="1" fill="#009688" opacity="0.77"/><rect x="376" y="300.4" width="6.8" height="8" rx="1" fill="#72ccd2" opacity="0.66"/><rect x="376" y="309.6" width="6.8" height="8" rx="1" fill="#007dc3" opacity="0.28"/><rect x="376" y="318.8" width="6.8" height="8" rx="1" fill="#009688" opacity="0.81"/><rect x="384" y="282" width="6.8" height="8" rx="1" fill="#72ccd2" opacity="0.6"/><rect x="384" y="291.2" width="6.8" height="8" rx="1" fill="#007dc3" opacity="0.46"/><rect x="384" y="300.4" width="6.8" height="8" rx="1" fill="#009688" opacity="0.94"/><rect x="384" y="309.6" width="6.8" height="8" rx="1" fill="#72ccd2" opacity="0.57"/><rect x="384" y="318.8" width="6.8" height="8" rx="1" fill="#007dc3" opacity="0.41"/><rect x="392" y="282" width="6.8" height="8" rx="1" fill="#009688" opacity="0.88"/><rect x="392" y="291.2" width="6.8" height="8" rx="1" fill="#72ccd2" opacity="0.54"/><rect x="392" y="300.4" width="6.8" height="8" rx="1" fill="#007dc3" opacity="0.32"/><rect x="392" y="309.6" width="6.8" height="8" rx="1" fill="#72ccd2" opacity="0.58"/><rect x="392" y="318.8" width="6.8" height="8" rx="1" fill="#009688" opacity="0.94"/><rect x="422" y="288" width="96" height="20" rx="5" fill="#007dc3" opacity="0.12"/><text x="470" y="301" font-family="Oxygen, system-ui, sans-serif" font-size="8" font-weight="700" fill="#007dc3" text-anchor="middle">+ add to cart</text><rect x="422" y="312" width="96" height="20" rx="5" fill="#e6e1db"/><text x="470" y="325" font-family="Oxygen, system-ui, sans-serif" font-size="8" font-weight="700" fill="#6a6158" text-anchor="middle">hand off</text></svg>