<svg xmlns="http://www.w3.org/2000/svg" viewBox="0 0 640 400" width="640" height="400" role="img"><title>Fungal Jungle</title><rect x="0" y="0" width="640" height="400" rx="0" fill="#f5f2ee"/><rect x="14" y="12" width="612" height="376" rx="8" fill="#ffffff"/><rect x="14.5" y="12.5" width="611" height="375" rx="8" fill="none" stroke="#d5cec6"/><rect x="14" y="12" width="612" height="26" rx="8" fill="#fafaf8"/><rect x="14" y="30" width="612" height="8" rx="0" fill="#fafaf8"/><rect x="14" y="38" width="612" height="1" rx="0" fill="#e6e1db"/><circle cx="30" cy="25" r="3.5" fill="#d5cec6"/><circle cx="42" cy="25" r="3.5" fill="#d5cec6"/><circle cx="54" cy="25" r="3.5" fill="#d5cec6"/><rect x="70" y="19" width="4" height="12" rx="2" fill="#c1cd23"/><text x="80" y="29" font-family="Oxygen, system-ui, sans-serif" font-size="10.5" font-weight="700" fill="#3e3832" text-anchor="start">Fungal Jungle</text><rect x="14" y="39" width="74" height="349" rx="0" fill="#fafaf8"/><rect x="88" y="39" width="1" height="349" rx="0" fill="#e6e1db"/><rect x="28" y="46" width="6" height="6" rx="1.5" fill="#9d9389"/><rect x="40" y="46.5" width="26" height="5" rx="2" fill="#9d9389" opacity="0.55"/><rect x="22" y="62" width="58" height="18" rx="4" fill="#c1cd23" opacity="0.14"/><rect x="28" y="68" width="6" height="6" rx="1.5" fill="#c1cd23"/><rect x="40" y="68.5" width="34" height="5" rx="2" fill="#c1cd23" opacity="0.55"/><rect x="28" y="90" width="6" height="6" rx="1.5" fill="#9d9389"/><rect x="40" y="90.5" width="24" height="5" rx="2" fill="#9d9389" opacity="0.55"/><rect x="28" y="112" width="6" height="6" rx="1.5" fill="#9d9389"/><rect x="40" y="112.5" width="30" height="5" rx="2" fill="#9d9389" opacity="0.55"/><rect x="102" y="50" width="428" height="44" rx="6" fill="#ffffff"/><rect x="102.5" y="50.5" width="427" height="43" rx="6" fill="none" stroke="#e6e1db"/><text x="114" y="70" font-family="Oxygen, system-ui, sans-serif" font-size="12" font-weight="700" fill="#1a1714" text-anchor="start">Trichoderma reesei QM6a</text><text x="114" y="84" font-family="Oxygen, system-ui, sans-serif" font-size="8" font-weight="400" fill="#776d64" text-anchor="start">CAZyme repertoire x ecological guild</text><rect x="444" y="62" width="54" height="14" rx="7" fill="#5e9732" opacity="0.16"/><text x="471" y="72" font-family="Oxygen, system-ui, sans-serif" font-size="7.5" font-weight="700" fill="#5e9732" text-anchor="middle">saprotroph</text><rect x="102" y="102" width="300" height="148" rx="6" fill="#ffffff"/><rect x="102.5" y="102.5" width="299" height="147" rx="6" fill="none" stroke="#e6e1db"/><text x="112" y="118" font-family="Oxygen, system-ui, sans-serif" font-size="8.5" font-weight="700" fill="#776d64" text-anchor="start">CAZyme FAMILIES</text><text x="114" y="128" font-family="Oxygen, system-ui, sans-serif" font-size="7.5" font-weight="700" fill="#776d64" text-anchor="start">GH</text><text x="114" y="160" font-family="Oxygen, system-ui, sans-serif" font-size="7.5" font-weight="700" fill="#776d64" text-anchor="start">AA</text><text x="114" y="192" font-family="Oxygen, system-ui, sans-serif" font-size="7.5" font-weight="700" fill="#776d64" text-anchor="start">CE</text><text x="114" y="224" font-family="Oxygen, system-ui, sans-serif" font-size="7.5" font-weight="700" fill="#776d64" text-anchor="start">PL</text><rect x="132" y="116" width="8.57" height="29.8" rx="1" fill="#5e9732" opacity="0.6"/><rect x="132" y="147" width="8.57" height="29.8" rx="1" fill="#c1cd23" opacity="0.43"/><rect x="132" y="178" width="8.57" height="29.8" rx="1" fill="#009688" opacity="0.81"/><rect x="132" y="209" width="8.57" height="29.8" rx="1" fill="#c1cd23" opacity="0.32"/><rect x="141.77" y="116" width="8.57" height="29.8" rx="1" fill="#5e9732" opacity="0.45"/><rect x="141.77" y="147" width="8.57" height="29.8" rx="1" fill="#f78e1e" opacity="0.8"/><rect x="141.77" y="178" width="8.57" height="29.8" rx="1" fill="#f78e1e" opacity="0.66"/><rect x="141.77" y="209" width="8.57" height="29.8" rx="1" fill="#009688" opacity="0.87"/><rect x="151.54" y="116" width="8.57" height="29.8" rx="1" fill="#009688" opacity="0.84"/><rect x="151.54" y="147" width="8.57" height="29.8" rx="1" fill="#5e9732" opacity="0.55"/><rect x="151.54" y="178" width="8.57" height="29.8" rx="1" fill="#009688" opacity="0.82"/><rect x="151.54" y="209" width="8.57" height="29.8" rx="1" fill="#f78e1e" opacity="0.8"/><rect x="161.31" y="116" width="8.57" height="29.8" rx="1" fill="#f78e1e" opacity="0.69"/><rect x="161.31" y="147" width="8.57" height="29.8" rx="1" fill="#f78e1e" opacity="0.76"/><rect x="161.31" y="178" width="8.57" height="29.8" rx="1" fill="#5e9732" opacity="0.53"/><rect x="161.31" y="209" width="8.57" height="29.8" rx="1" fill="#009688" opacity="0.98"/><rect x="171.08" y="116" width="8.57" height="29.8" rx="1" fill="#f78e1e" opacity="0.64"/><rect x="171.08" y="147" width="8.57" height="29.8" rx="1" fill="#f78e1e" opacity="0.64"/><rect x="171.08" y="178" width="8.57" height="29.8" rx="1" fill="#5e9732" opacity="0.49"/><rect x="171.08" y="209" width="8.57" height="29.8" rx="1" fill="#c1cd23" opacity="0.28"/><rect x="180.85" y="116" width="8.57" height="29.8" rx="1" fill="#5e9732" opacity="0.49"/><rect x="180.85" y="147" width="8.57" height="29.8" rx="1" fill="#f78e1e" opacity="0.71"/><rect x="180.85" y="178" width="8.57" height="29.8" rx="1" fill="#f78e1e" opacity="0.67"/><rect x="180.85" y="209" width="8.57" height="29.8" rx="1" fill="#f78e1e" opacity="0.78"/><rect x="190.62" y="116" width="8.57" height="29.8" rx="1" fill="#c1cd23" opacity="0.37"/><rect x="190.62" y="147" width="8.57" height="29.8" rx="1" fill="#c1cd23" opacity="0.25"/><rect x="190.62" y="178" width="8.57" height="29.8" rx="1" fill="#c1cd23" opacity="0.38"/><rect x="190.62" y="209" width="8.57" height="29.8" rx="1" fill="#5e9732" opacity="0.59"/><rect x="200.38" y="116" width="8.57" height="29.8" rx="1" fill="#c1cd23" opacity="0.42"/><rect x="200.38" y="147" width="8.57" height="29.8" rx="1" fill="#c1cd23" opacity="0.42"/><rect x="200.38" y="178" width="8.57" height="29.8" rx="1" fill="#5e9732" opacity="0.57"/><rect x="200.38" y="209" width="8.57" height="29.8" rx="1" fill="#c1cd23" opacity="0.27"/><rect x="210.15" y="116" width="8.57" height="29.8" rx="1" fill="#c1cd23" opacity="0.35"/><rect x="210.15" y="147" width="8.57" height="29.8" rx="1" fill="#009688" opacity="0.89"/><rect x="210.15" y="178" width="8.57" height="29.8" rx="1" fill="#009688" opacity="0.85"/><rect x="210.15" y="209" width="8.57" height="29.8" rx="1" fill="#009688" opacity="0.86"/><rect x="219.92" y="116" width="8.57" height="29.8" rx="1" fill="#f78e1e" opacity="0.77"/><rect x="219.92" y="147" width="8.57" height="29.8" rx="1" fill="#5e9732" opacity="0.48"/><rect x="219.92" y="178" width="8.57" height="29.8" rx="1" fill="#5e9732" opacity="0.58"/><rect x="219.92" y="209" width="8.57" height="29.8" rx="1" fill="#5e9732" opacity="0.52"/><rect x="229.69" y="116" width="8.57" height="29.8" rx="1" fill="#c1cd23" opacity="0.34"/><rect x="229.69" y="147" width="8.57" height="29.8" rx="1" fill="#c1cd23" opacity="0.4"/><rect x="229.69" y="178" width="8.57" height="29.8" rx="1" fill="#f78e1e" opacity="0.78"/><rect x="229.69" y="209" width="8.57" height="29.8" rx="1" fill="#c1cd23" opacity="0.32"/><rect x="239.46" y="116" width="8.57" height="29.8" rx="1" fill="#c1cd23" opacity="0.3"/><rect x="239.46" y="147" width="8.57" height="29.8" rx="1" fill="#f78e1e" opacity="0.72"/><rect x="239.46" y="178" width="8.57" height="29.8" rx="1" fill="#f78e1e" opacity="0.75"/><rect x="239.46" y="209" width="8.57" height="29.8" rx="1" fill="#c1cd23" opacity="0.29"/><rect x="249.23" y="116" width="8.57" height="29.8" rx="1" fill="#009688" opacity="0.85"/><rect x="249.23" y="147" width="8.57" height="29.8" rx="1" fill="#c1cd23" opacity="0.32"/><rect x="249.23" y="178" width="8.57" height="29.8" rx="1" fill="#f78e1e" opacity="0.76"/><rect x="249.23" y="209" width="8.57" height="29.8" rx="1" fill="#c1cd23" opacity="0.41"/><rect x="259" y="116" width="8.57" height="29.8" rx="1" fill="#5e9732" opacity="0.6"/><rect x="259" y="147" width="8.57" height="29.8" rx="1" fill="#c1cd23" opacity="0.34"/><rect x="259" y="178" width="8.57" height="29.8" rx="1" fill="#5e9732" opacity="0.58"/><rect x="259" y="209" width="8.57" height="29.8" rx="1" fill="#009688" opacity="0.83"/><rect x="268.77" y="116" width="8.57" height="29.8" rx="1" fill="#5e9732" opacity="0.48"/><rect x="268.77" y="147" width="8.57" height="29.8" rx="1" fill="#f78e1e" opacity="0.69"/><rect x="268.77" y="178" width="8.57" height="29.8" rx="1" fill="#c1cd23" opacity="0.38"/><rect x="268.77" y="209" width="8.57" height="29.8" rx="1" fill="#5e9732" opacity="0.59"/><rect x="278.54" y="116" width="8.57" height="29.8" rx="1" fill="#c1cd23" opacity="0.43"/><rect x="278.54" y="147" width="8.57" height="29.8" rx="1" fill="#5e9732" opacity="0.56"/><rect x="278.54" y="178" width="8.57" height="29.8" rx="1" fill="#009688" opacity="0.91"/><rect x="278.54" y="209" width="8.57" height="29.8" rx="1" fill="#f78e1e" opacity="0.69"/><rect x="288.31" y="116" width="8.57" height="29.8" rx="1" fill="#c1cd23" opacity="0.38"/><rect x="288.31" y="147" width="8.57" height="29.8" rx="1" fill="#c1cd23" opacity="0.38"/><rect x="288.31" y="178" width="8.57" height="29.8" rx="1" fill="#f78e1e" opacity="0.75"/><rect x="288.31" y="209" width="8.57" height="29.8" rx="1" fill="#009688" opacity="0.83"/><rect x="298.08" y="116" width="8.57" height="29.8" rx="1" fill="#009688" opacity="0.96"/><rect x="298.08" y="147" width="8.57" height="29.8" rx="1" fill="#f78e1e" opacity="0.73"/><rect x="298.08" y="178" width="8.57" height="29.8" rx="1" fill="#f78e1e" opacity="0.74"/><rect x="298.08" y="209" width="8.57" height="29.8" rx="1" fill="#c1cd23" opacity="0.26"/><rect x="307.85" y="116" width="8.57" height="29.8" rx="1" fill="#009688" opacity="0.88"/><rect x="307.85" y="147" width="8.57" height="29.8" rx="1" fill="#5e9732" opacity="0.61"/><rect x="307.85" y="178" width="8.57" height="29.8" rx="1" fill="#c1cd23" opacity="0.35"/><rect x="307.85" y="209" width="8.57" height="29.8" rx="1" fill="#009688" opacity="0.98"/><rect x="317.62" y="116" width="8.57" height="29.8" rx="1" fill="#009688" opacity="0.92"/><rect x="317.62" y="147" width="8.57" height="29.8" rx="1" fill="#f78e1e" opacity="0.66"/><rect x="317.62" y="178" width="8.57" height="29.8" rx="1" fill="#f78e1e" opacity="0.78"/><rect x="317.62" y="209" width="8.57" height="29.8" rx="1" fill="#f78e1e" opacity="0.76"/><rect x="327.38" y="116" width="8.57" height="29.8" rx="1" fill="#f78e1e" opacity="0.77"/><rect x="327.38" y="147" width="8.57" height="29.8" rx="1" fill="#5e9732" opacity="0.53"/><rect x="327.38" y="178" width="8.57" height="29.8" rx="1" fill="#f78e1e" opacity="0.74"/><rect x="327.38" y="209" width="8.57" height="29.8" rx="1" fill="#f78e1e" opacity="0.68"/><rect x="337.15" y="116" width="8.57" height="29.8" rx="1" fill="#c1cd23" opacity="0.42"/><rect x="337.15" y="147" width="8.57" height="29.8" rx="1" fill="#009688" opacity="1"/><rect x="337.15" y="178" width="8.57" height="29.8" rx="1" fill="#c1cd23" opacity="0.28"/><rect x="337.15" y="209" width="8.57" height="29.8" rx="1" fill="#c1cd23" opacity="0.27"/><rect x="346.92" y="116" width="8.57" height="29.8" rx="1" fill="#009688" opacity="0.87"/><rect x="346.92" y="147" width="8.57" height="29.8" rx="1" fill="#c1cd23" opacity="0.41"/><rect x="346.92" y="178" width="8.57" height="29.8" rx="1" fill="#009688" opacity="0.92"/><rect x="346.92" y="209" width="8.57" height="29.8" rx="1" fill="#f78e1e" opacity="0.69"/><rect x="356.69" y="116" width="8.57" height="29.8" rx="1" fill="#f78e1e" opacity="0.76"/><rect x="356.69" y="147" width="8.57" height="29.8" rx="1" fill="#f78e1e" opacity="0.76"/><rect x="356.69" y="178" width="8.57" height="29.8" rx="1" fill="#f78e1e" opacity="0.75"/><rect x="356.69" y="209" width="8.57" height="29.8" rx="1" fill="#f78e1e" opacity="0.72"/><rect x="366.46" y="116" width="8.57" height="29.8" rx="1" fill="#c1cd23" opacity="0.33"/><rect x="366.46" y="147" width="8.57" height="29.8" rx="1" fill="#f78e1e" opacity="0.73"/><rect x="366.46" y="178" width="8.57" height="29.8" rx="1" fill="#009688" opacity="0.9"/><rect x="366.46" y="209" width="8.57" height="29.8" rx="1" fill="#c1cd23" opacity="0.31"/><rect x="376.23" y="116" width="8.57" height="29.8" rx="1" fill="#f78e1e" opacity="0.78"/><rect x="376.23" y="147" width="8.57" height="29.8" rx="1" fill="#c1cd23" opacity="0.42"/><rect x="376.23" y="178" width="8.57" height="29.8" rx="1" fill="#5e9732" opacity="0.61"/><rect x="376.23" y="209" width="8.57" height="29.8" rx="1" fill="#5e9732" opacity="0.59"/><rect x="412" y="102" width="118" height="148" rx="6" fill="#ffffff"/><rect x="412.5" y="102.5" width="117" height="147" rx="6" fill="none" stroke="#e6e1db"/><text x="422" y="118" font-family="Oxygen, system-ui, sans-serif" font-size="8.5" font-weight="700" fill="#776d64" text-anchor="start">GUILDS</text><circle cx="426" cy="128" r="5" fill="#c1cd23" opacity="0.75"/><text x="438" y="131" font-family="Oxygen, system-ui, sans-serif" font-size="7.5" font-weight="400" fill="#6a6158" text-anchor="start">saprotroph</text><circle cx="426" cy="150" r="5" fill="#5e9732" opacity="0.75"/><text x="438" y="153" font-family="Oxygen, system-ui, sans-serif" font-size="7.5" font-weight="400" fill="#6a6158" text-anchor="start">ectomycorrhizal</text><circle cx="426" cy="172" r="5" fill="#d2232a" opacity="0.75"/><text x="438" y="175" font-family="Oxygen, system-ui, sans-serif" font-size="7.5" font-weight="400" fill="#6a6158" text-anchor="start">pathogen</text><circle cx="426" cy="194" r="5" fill="#009688" opacity="0.75"/><text x="438" y="197" font-family="Oxygen, system-ui, sans-serif" font-size="7.5" font-weight="400" fill="#6a6158" text-anchor="start">endophyte</text><rect x="424" y="218" width="94" height="1" rx="0" fill="#e6e1db"/><rect x="424" y="228" width="78" height="4" rx="2" fill="#9d9389" opacity="0.5"/><rect x="424" y="239" width="60" height="4" rx="2" fill="#9d9389" opacity="0.5"/><rect x="102" y="262" width="262" height="76" rx="6" fill="#ffffff"/><rect x="102.5" y="262.5" width="261" height="75" rx="6" fill="none" stroke="#e6e1db"/><text x="112" y="278" font-family="Oxygen, system-ui, sans-serif" font-size="8.5" font-weight="700" fill="#776d64" text-anchor="start">MODEL-ORGANISM DEEP DIVE</text><g transform="translate(118 282)"><line x1="5.09" y1="20.87" x2="35.66" y2="40.22" stroke="#d5cec6" stroke-width="1"/><line x1="5.09" y1="20.87" x2="5.42" y2="28.52" stroke="#d5cec6" stroke-width="1"/><line x1="71.54" y1="23.04" x2="24.26" y2="26.4" stroke="#d5cec6" stroke-width="1"/><line x1="47.89" y1="24.32" x2="24.26" y2="26.4" stroke="#d5cec6" stroke-width="1"/><line x1="35.66" y1="40.22" x2="46.61" y2="23.06" stroke="#d5cec6" stroke-width="1"/><line x1="5.99" y1="43.42" x2="31.23" y2="0.12" stroke="#d5cec6" stroke-width="1"/><line x1="87.05" y1="24.05" x2="106.31" y2="22.06" stroke="#d5cec6" stroke-width="1"/><line x1="106.31" y1="22.06" x2="87.3" y2="35.45" stroke="#d5cec6" stroke-width="1"/><line x1="46.61" y1="23.06" x2="47.89" y2="24.32" stroke="#d5cec6" stroke-width="1"/><line x1="31.23" y1="0.12" x2="106.31" y2="22.06" stroke="#d5cec6" stroke-width="1"/><line x1="65.06" y1="6.12" x2="107.74" y2="42.65" stroke="#d5cec6" stroke-width="1"/><line x1="65.06" y1="6.12" x2="24.26" y2="26.4" stroke="#d5cec6" stroke-width="1"/><line x1="15.74" y1="35.18" x2="46.61" y2="23.06" stroke="#d5cec6" stroke-width="1"/><line x1="71.38" y1="23.94" x2="106.31" y2="22.06" stroke="#d5cec6" stroke-width="1"/><line x1="87.3" y1="35.45" x2="24.26" y2="26.4" stroke="#d5cec6" stroke-width="1"/><line x1="87.3" y1="35.45" x2="5.09" y2="20.87" stroke="#d5cec6" stroke-width="1"/><line x1="5.42" y1="28.52" x2="107.74" y2="42.65" stroke="#d5cec6" stroke-width="1"/><line x1="24.26" y1="26.4" x2="71.54" y2="23.04" stroke="#d5cec6" stroke-width="1"/><line x1="24.26" y1="26.4" x2="15.74" y2="35.18" stroke="#d5cec6" stroke-width="1"/><line x1="60.61" y1="29" x2="31.23" y2="0.12" stroke="#d5cec6" stroke-width="1"/><line x1="105.09" y1="13.25" x2="71.38" y2="23.94" stroke="#d5cec6" stroke-width="1"/><line x1="105.09" y1="13.25" x2="87.05" y2="24.05" stroke="#d5cec6" stroke-width="1"/><circle cx="5.09" cy="20.87" r="2.54" fill="#5e9732" opacity="0.85"/><circle cx="71.54" cy="23.04" r="2.92" fill="#5e9732" opacity="0.85"/><circle cx="47.89" cy="24.32" r="3" fill="#009688" opacity="0.85"/><circle cx="35.66" cy="40.22" r="4.16" fill="#c1cd23" opacity="0.85"/><circle cx="5.99" cy="43.42" r="6.1" fill="#c1cd23" opacity="0.85"/><circle cx="107.74" cy="42.65" r="4.06" fill="#5e9732" opacity="0.85"/><circle cx="87.05" cy="24.05" r="5.16" fill="#5e9732" opacity="0.85"/><circle cx="106.31" cy="22.06" r="3.69" fill="#5e9732" opacity="0.85"/><circle cx="46.61" cy="23.06" r="4.55" fill="#5e9732" opacity="0.85"/><circle cx="31.23" cy="0.12" r="3.72" fill="#5e9732" opacity="0.85"/><circle cx="65.06" cy="6.12" r="3.96" fill="#5e9732" opacity="0.85"/><circle cx="15.74" cy="35.18" r="3.68" fill="#009688" opacity="0.85"/><circle cx="71.38" cy="23.94" r="3.15" fill="#5e9732" opacity="0.85"/><circle cx="87.3" cy="35.45" r="5.53" fill="#c1cd23" opacity="0.85"/><circle cx="5.42" cy="28.52" r="5.78" fill="#5e9732" opacity="0.85"/><circle cx="24.26" cy="26.4" r="4.52" fill="#009688" opacity="0.85"/><circle cx="60.61" cy="29" r="6.15" fill="#5e9732" opacity="0.85"/><circle cx="105.09" cy="13.25" r="3.81" fill="#009688" opacity="0.85"/></g><rect x="252" y="300.8" width="10" height="25.2" rx="1.5" fill="#5e9732"/><rect x="264.5" y="290.3" width="10" height="35.7" rx="1.5" fill="#5e9732"/><rect x="277" y="309.2" width="10" height="16.8" rx="1.5" fill="#5e9732"/><rect x="289.5" y="295.76" width="10" height="30.24" rx="1.5" fill="#5e9732"/><rect x="302" y="302.9" width="10" height="23.1" rx="1.5" fill="#5e9732"/><rect x="314.5" y="287.36" width="10" height="38.64" rx="1.5" fill="#5e9732"/><rect x="327" y="311.3" width="10" height="14.7" rx="1.5" fill="#5e9732"/><rect x="339.5" y="298.28" width="10" height="27.72" rx="1.5" fill="#5e9732"/><rect x="374" y="262" width="156" height="76" rx="6" fill="#ffffff"/><rect x="374.5" y="262.5" width="155" height="75" rx="6" fill="none" stroke="#e6e1db"/><text x="384" y="278" font-family="Oxygen, system-ui, sans-serif" font-size="8.5" font-weight="700" fill="#776d64" text-anchor="start">NOVELTY x INFO-DENSITY</text><rect x="390" y="324" width="124" height="1" rx="0" fill="#d5cec6"/><rect x="390" y="282" width="1" height="42" rx="0" fill="#d5cec6"/><circle cx="432.3" cy="296.98" r="3.25" fill="#f78e1e" opacity="0.56"/><circle cx="479.85" cy="308.96" r="1.51" fill="#f78e1e" opacity="0.71"/><circle cx="511.19" cy="284.21" r="2.45" fill="#5e9732" opacity="0.74"/><circle cx="463.3" cy="307.5" r="2.69" fill="#5e9732" opacity="0.51"/><circle cx="466.19" cy="286.77" r="2.63" fill="#5e9732" opacity="0.45"/><circle cx="476.69" cy="289.22" r="1.85" fill="#f78e1e" opacity="0.79"/><circle cx="495.45" cy="292.99" r="3.27" fill="#5e9732" opacity="0.76"/><circle cx="419.68" cy="289.38" r="2.67" fill="#f78e1e" opacity="0.48"/><circle cx="420.6" cy="296.33" r="3.01" fill="#c1cd23" opacity="0.6"/><circle cx="413.58" cy="292.62" r="2.31" fill="#f78e1e" opacity="0.67"/><circle cx="493.45" cy="299.18" r="1.69" fill="#c1cd23" opacity="0.77"/><circle cx="490.98" cy="286.18" r="1.57" fill="#c1cd23" opacity="0.86"/><circle cx="510.52" cy="294.97" r="2.89" fill="#5e9732" opacity="0.49"/><circle cx="436.97" cy="292.3" r="3.31" fill="#f78e1e" opacity="0.73"/><circle cx="431.41" cy="291.65" r="1.41" fill="#f78e1e" opacity="0.67"/><circle cx="510.13" cy="287.01" r="1.68" fill="#5e9732" opacity="0.88"/><circle cx="404.22" cy="292.98" r="2.93" fill="#5e9732" opacity="0.54"/><circle cx="445.15" cy="299.42" r="2.19" fill="#c1cd23" opacity="0.8"/><circle cx="411.16" cy="295.07" r="2.54" fill="#f78e1e" opacity="0.51"/><circle cx="496.42" cy="309.06" r="2.85" fill="#c1cd23" opacity="0.41"/><circle cx="456.6" cy="292.79" r="2.86" fill="#5e9732" opacity="0.46"/><circle cx="450.07" cy="321.64" r="1.47" fill="#f78e1e" opacity="0.41"/><circle cx="466.5" cy="311.24" r="3.39" fill="#c1cd23" opacity="0.42"/><circle cx="458.72" cy="289.51" r="2.74" fill="#f78e1e" opacity="0.51"/><circle cx="409.16" cy="317.49" r="2.57" fill="#c1cd23" opacity="0.86"/><circle cx="405.66" cy="311.1" r="2.97" fill="#c1cd23" opacity="0.69"/></svg>