<svg xmlns="http://www.w3.org/2000/svg" viewBox="0 0 640 400" width="640" height="400" role="img"><title>Plant Terra</title><rect x="0" y="0" width="640" height="400" rx="0" fill="#f5f2ee"/><rect x="14" y="12" width="612" height="376" rx="8" fill="#ffffff"/><rect x="14.5" y="12.5" width="611" height="375" rx="8" fill="none" stroke="#d5cec6"/><rect x="14" y="12" width="612" height="26" rx="8" fill="#fafaf8"/><rect x="14" y="30" width="612" height="8" rx="0" fill="#fafaf8"/><rect x="14" y="38" width="612" height="1" rx="0" fill="#e6e1db"/><circle cx="30" cy="25" r="3.5" fill="#d5cec6"/><circle cx="42" cy="25" r="3.5" fill="#d5cec6"/><circle cx="54" cy="25" r="3.5" fill="#d5cec6"/><rect x="70" y="19" width="4" height="12" rx="2" fill="#5e9732"/><text x="80" y="29" font-family="Oxygen, system-ui, sans-serif" font-size="10.5" font-weight="700" fill="#3e3832" text-anchor="start">Plant Terra</text><rect x="14" y="39" width="74" height="349" rx="0" fill="#fafaf8"/><rect x="88" y="39" width="1" height="349" rx="0" fill="#e6e1db"/><rect x="28" y="46" width="6" height="6" rx="1.5" fill="#9d9389"/><rect x="40" y="46.5" width="30" height="5" rx="2" fill="#9d9389" opacity="0.55"/><rect x="28" y="68" width="6" height="6" rx="1.5" fill="#9d9389"/><rect x="40" y="68.5" width="26" height="5" rx="2" fill="#9d9389" opacity="0.55"/><rect x="22" y="84" width="58" height="18" rx="4" fill="#5e9732" opacity="0.14"/><rect x="28" y="90" width="6" height="6" rx="1.5" fill="#5e9732"/><rect x="40" y="90.5" width="32" height="5" rx="2" fill="#5e9732" opacity="0.55"/><rect x="28" y="112" width="6" height="6" rx="1.5" fill="#9d9389"/><rect x="40" y="112.5" width="24" height="5" rx="2" fill="#9d9389" opacity="0.55"/><rect x="28" y="134" width="6" height="6" rx="1.5" fill="#9d9389"/><rect x="40" y="134.5" width="28" height="5" rx="2" fill="#9d9389" opacity="0.55"/><rect x="102" y="50" width="428" height="92" rx="8" fill="#5e9732" opacity="0.1"/><rect x="102.5" y="50.5" width="427" height="91" rx="8" fill="none" stroke="#5e9732" opacity="0.3"/><text x="116" y="74" font-family="Oxygen, system-ui, sans-serif" font-size="13" font-weight="700" fill="#1a1714" text-anchor="start">Sorghum bicolor BTx623</text><text x="116" y="90" font-family="Oxygen, system-ui, sans-serif" font-size="8" font-weight="400" fill="#6a6158" text-anchor="start">environment - coarse + native tiers</text><rect x="116" y="100" width="49.4" height="14" rx="7" fill="#f78e1e" opacity="0.16"/><text x="140.7" y="110" font-family="Oxygen, system-ui, sans-serif" font-size="7.5" font-weight="700" fill="#f78e1e" text-anchor="middle">semi-arid</text><rect x="184" y="100" width="44.8" height="14" rx="7" fill="#5e9732" opacity="0.16"/><text x="206.4" y="110" font-family="Oxygen, system-ui, sans-serif" font-size="7.5" font-weight="700" fill="#5e9732" text-anchor="middle">C4 grass</text><rect x="252" y="100" width="44.8" height="14" rx="7" fill="#009688" opacity="0.16"/><text x="274.4" y="110" font-family="Oxygen, system-ui, sans-serif" font-size="7.5" font-weight="700" fill="#009688" text-anchor="middle">GDD 2840</text><g transform="translate(330 62) scale(0.62)"><path d="M18 44 L52 30 L96 34 L128 24 L150 38 L136 60 L104 66 L72 58 L40 66 Z M60 78 L92 74 L104 96 L92 128 L74 132 L62 108 Z M168 26 L214 18 L262 28 L286 22 L300 40 L272 58 L232 54 L196 62 L170 48 Z M186 72 L226 68 L246 92 L232 124 L204 128 L186 100 Z M252 96 L292 92 L302 112 L278 124 L256 116 Z" fill="#e6e1db" opacity="0.85"/><circle cx="162.82" cy="64.67" r="4.32" fill="#009688" opacity="0.75"/><circle cx="181.2" cy="47.87" r="1.86" fill="#f78e1e" opacity="0.75"/><circle cx="67.43" cy="41.77" r="3.34" fill="#009688" opacity="0.75"/><circle cx="91.32" cy="110.22" r="2.9" fill="#5e9732" opacity="0.75"/><circle cx="296.57" cy="26.41" r="3.05" fill="#f78e1e" opacity="0.75"/><circle cx="54.54" cy="70.79" r="2.36" fill="#009688" opacity="0.75"/><circle cx="23.53" cy="88.85" r="3.72" fill="#009688" opacity="0.75"/><circle cx="25.37" cy="83.06" r="3.94" fill="#009688" opacity="0.75"/><circle cx="141.16" cy="30.59" r="4.4" fill="#5e9732" opacity="0.75"/><circle cx="78.06" cy="56.01" r="2.14" fill="#5e9732" opacity="0.75"/><circle cx="49.04" cy="25.78" r="2.27" fill="#5e9732" opacity="0.75"/><circle cx="37.41" cy="78.77" r="3.9" fill="#009688" opacity="0.75"/><circle cx="268.06" cy="114.32" r="1.93" fill="#5e9732" opacity="0.75"/><circle cx="177.18" cy="27.34" r="3.12" fill="#5e9732" opacity="0.75"/><circle cx="242.52" cy="86.96" r="1.7" fill="#f78e1e" opacity="0.75"/><circle cx="185.88" cy="113.04" r="4.11" fill="#5e9732" opacity="0.75"/><circle cx="289.78" cy="92.23" r="1.78" fill="#009688" opacity="0.75"/><circle cx="40.22" cy="62.85" r="4.01" fill="#5e9732" opacity="0.75"/><circle cx="137.33" cy="95.23" r="4.35" fill="#5e9732" opacity="0.75"/><circle cx="265.89" cy="121.75" r="3.11" fill="#5e9732" opacity="0.75"/><circle cx="207.42" cy="58.35" r="2.68" fill="#5e9732" opacity="0.75"/><circle cx="185.96" cy="26.72" r="4.15" fill="#f78e1e" opacity="0.75"/></g><rect x="102" y="150" width="138" height="100" rx="6" fill="#ffffff"/><rect x="102.5" y="150.5" width="137" height="99" rx="6" fill="none" stroke="#e6e1db"/><text x="112" y="166" font-family="Oxygen, system-ui, sans-serif" font-size="8.5" font-weight="700" fill="#776d64" text-anchor="start">COMPARATIVE</text><g transform="translate(112 172)"><path d="M56 0 H42 V9.43 H56" fill="none" stroke="#5e9732" stroke-width="1.2" opacity="0.65"/><path d="M56 18.86 H42 V28.29 H56" fill="none" stroke="#5e9732" stroke-width="1.2" opacity="0.65"/><path d="M56 37.71 H42 V47.14 H56" fill="none" stroke="#5e9732" stroke-width="1.2" opacity="0.65"/><path d="M56 56.57 H42 V66 H56" fill="none" stroke="#5e9732" stroke-width="1.2" opacity="0.65"/><path d="M42 4.71 H28 V23.57 H42" fill="none" stroke="#5e9732" stroke-width="1.2" opacity="0.65"/><path d="M42 42.43 H28 V61.29 H42" fill="none" stroke="#5e9732" stroke-width="1.2" opacity="0.65"/><path d="M28 14.14 H14 V51.86 H28" fill="none" stroke="#5e9732" stroke-width="1.2" opacity="0.65"/></g><rect x="174" y="172" width="10" height="7.05" rx="1" fill="#5e9732" opacity="0.33"/><rect x="174" y="180.25" width="10" height="7.05" rx="1" fill="#c1cd23" opacity="0.62"/><rect x="174" y="188.5" width="10" height="7.05" rx="1" fill="#009688" opacity="0.87"/><rect x="174" y="196.75" width="10" height="7.05" rx="1" fill="#5e9732" opacity="0.28"/><rect x="174" y="205" width="10" height="7.05" rx="1" fill="#5e9732" opacity="0.29"/><rect x="174" y="213.25" width="10" height="7.05" rx="1" fill="#5e9732" opacity="0.27"/><rect x="174" y="221.5" width="10" height="7.05" rx="1" fill="#c1cd23" opacity="0.74"/><rect x="174" y="229.75" width="10" height="7.05" rx="1" fill="#5e9732" opacity="0.41"/><rect x="185.2" y="172" width="10" height="7.05" rx="1" fill="#5e9732" opacity="0.41"/><rect x="185.2" y="180.25" width="10" height="7.05" rx="1" fill="#009688" opacity="0.92"/><rect x="185.2" y="188.5" width="10" height="7.05" rx="1" fill="#c1cd23" opacity="0.56"/><rect x="185.2" y="196.75" width="10" height="7.05" rx="1" fill="#5e9732" opacity="0.5"/><rect x="185.2" y="205" width="10" height="7.05" rx="1" fill="#009688" opacity="0.82"/><rect x="185.2" y="213.25" width="10" height="7.05" rx="1" fill="#c1cd23" opacity="0.6"/><rect x="185.2" y="221.5" width="10" height="7.05" rx="1" fill="#009688" opacity="0.98"/><rect x="185.2" y="229.75" width="10" height="7.05" rx="1" fill="#5e9732" opacity="0.26"/><rect x="196.4" y="172" width="10" height="7.05" rx="1" fill="#c1cd23" opacity="0.69"/><rect x="196.4" y="180.25" width="10" height="7.05" rx="1" fill="#c1cd23" opacity="0.71"/><rect x="196.4" y="188.5" width="10" height="7.05" rx="1" fill="#5e9732" opacity="0.4"/><rect x="196.4" y="196.75" width="10" height="7.05" rx="1" fill="#5e9732" opacity="0.44"/><rect x="196.4" y="205" width="10" height="7.05" rx="1" fill="#009688" opacity="0.97"/><rect x="196.4" y="213.25" width="10" height="7.05" rx="1" fill="#009688" opacity="0.85"/><rect x="196.4" y="221.5" width="10" height="7.05" rx="1" fill="#009688" opacity="0.89"/><rect x="196.4" y="229.75" width="10" height="7.05" rx="1" fill="#009688" opacity="0.78"/><rect x="207.6" y="172" width="10" height="7.05" rx="1" fill="#009688" opacity="0.85"/><rect x="207.6" y="180.25" width="10" height="7.05" rx="1" fill="#009688" opacity="0.93"/><rect x="207.6" y="188.5" width="10" height="7.05" rx="1" fill="#009688" opacity="0.84"/><rect x="207.6" y="196.75" width="10" height="7.05" rx="1" fill="#009688" opacity="0.87"/><rect x="207.6" y="205" width="10" height="7.05" rx="1" fill="#009688" opacity="0.83"/><rect x="207.6" y="213.25" width="10" height="7.05" rx="1" fill="#5e9732" opacity="0.37"/><rect x="207.6" y="221.5" width="10" height="7.05" rx="1" fill="#5e9732" opacity="0.49"/><rect x="207.6" y="229.75" width="10" height="7.05" rx="1" fill="#009688" opacity="0.9"/><rect x="218.8" y="172" width="10" height="7.05" rx="1" fill="#5e9732" opacity="0.26"/><rect x="218.8" y="180.25" width="10" height="7.05" rx="1" fill="#c1cd23" opacity="0.71"/><rect x="218.8" y="188.5" width="10" height="7.05" rx="1" fill="#5e9732" opacity="0.46"/><rect x="218.8" y="196.75" width="10" height="7.05" rx="1" fill="#009688" opacity="0.78"/><rect x="218.8" y="205" width="10" height="7.05" rx="1" fill="#009688" opacity="0.93"/><rect x="218.8" y="213.25" width="10" height="7.05" rx="1" fill="#009688" opacity="0.9"/><rect x="218.8" y="221.5" width="10" height="7.05" rx="1" fill="#009688" opacity="0.78"/><rect x="218.8" y="229.75" width="10" height="7.05" rx="1" fill="#009688" opacity="0.98"/><rect x="250" y="150" width="138" height="100" rx="6" fill="#ffffff"/><rect x="250.5" y="150.5" width="137" height="99" rx="6" fill="none" stroke="#e6e1db"/><text x="260" y="166" font-family="Oxygen, system-ui, sans-serif" font-size="8.5" font-weight="700" fill="#776d64" text-anchor="start">METABOLISM</text><g transform="translate(264 170)"><line x1="52.03" y1="16.56" x2="84.63" y2="35.57" stroke="#d5cec6" stroke-width="1"/><line x1="52.03" y1="16.56" x2="66" y2="3.03" stroke="#d5cec6" stroke-width="1"/><line x1="52.86" y1="13.42" x2="63.09" y2="35.32" stroke="#d5cec6" stroke-width="1"/><line x1="52.86" y1="13.42" x2="84.63" y2="35.57" stroke="#d5cec6" stroke-width="1"/><line x1="31.81" y1="31.81" x2="46.86" y2="58.52" stroke="#d5cec6" stroke-width="1"/><line x1="31.81" y1="31.81" x2="18.46" y2="13.92" stroke="#d5cec6" stroke-width="1"/><line x1="28.09" y1="43.69" x2="52.03" y2="16.56" stroke="#d5cec6" stroke-width="1"/><line x1="28.09" y1="43.69" x2="52.86" y2="13.42" stroke="#d5cec6" stroke-width="1"/><line x1="84.63" y1="35.57" x2="52.03" y2="16.56" stroke="#d5cec6" stroke-width="1"/><line x1="47.27" y1="17.76" x2="12.29" y2="61.94" stroke="#d5cec6" stroke-width="1"/><line x1="47.27" y1="17.76" x2="101.41" y2="36.99" stroke="#d5cec6" stroke-width="1"/><line x1="57.9" y1="24.85" x2="31.81" y2="31.81" stroke="#d5cec6" stroke-width="1"/><line x1="57.9" y1="24.85" x2="14.24" y2="67.15" stroke="#d5cec6" stroke-width="1"/><line x1="12.29" y1="61.94" x2="14.24" y2="67.15" stroke="#d5cec6" stroke-width="1"/><line x1="101.41" y1="36.99" x2="18.46" y2="13.92" stroke="#d5cec6" stroke-width="1"/><line x1="101.41" y1="36.99" x2="57.9" y2="24.85" stroke="#d5cec6" stroke-width="1"/><line x1="30.24" y1="41.29" x2="84.63" y2="35.57" stroke="#d5cec6" stroke-width="1"/><line x1="14.24" y1="67.15" x2="57.9" y2="24.85" stroke="#d5cec6" stroke-width="1"/><line x1="14.24" y1="67.15" x2="12.29" y2="61.94" stroke="#d5cec6" stroke-width="1"/><line x1="46.86" y1="58.52" x2="47.27" y2="17.76" stroke="#d5cec6" stroke-width="1"/><line x1="63.09" y1="35.32" x2="57.9" y2="24.85" stroke="#d5cec6" stroke-width="1"/><line x1="63.09" y1="35.32" x2="18.46" y2="13.92" stroke="#d5cec6" stroke-width="1"/><line x1="66" y1="3.03" x2="29.85" y2="54.38" stroke="#d5cec6" stroke-width="1"/><line x1="66" y1="3.03" x2="57.9" y2="24.85" stroke="#d5cec6" stroke-width="1"/><line x1="29.85" y1="54.38" x2="28.09" y2="43.69" stroke="#d5cec6" stroke-width="1"/><line x1="29.85" y1="54.38" x2="46.86" y2="58.52" stroke="#d5cec6" stroke-width="1"/><line x1="4.01" y1="53.08" x2="46.86" y2="58.52" stroke="#d5cec6" stroke-width="1"/><line x1="4.01" y1="53.08" x2="52.86" y2="13.42" stroke="#d5cec6" stroke-width="1"/><line x1="18.46" y1="13.92" x2="52.03" y2="16.56" stroke="#d5cec6" stroke-width="1"/><line x1="18.46" y1="13.92" x2="52.03" y2="16.56" stroke="#d5cec6" stroke-width="1"/><line x1="91.34" y1="65.79" x2="4.01" y2="53.08" stroke="#d5cec6" stroke-width="1"/><circle cx="52.03" cy="16.56" r="5.63" fill="#009688" opacity="0.85"/><circle cx="52.86" cy="13.42" r="2.99" fill="#009688" opacity="0.85"/><circle cx="31.81" cy="31.81" r="2.76" fill="#009688" opacity="0.85"/><circle cx="28.09" cy="43.69" r="4.29" fill="#5e9732" opacity="0.85"/><circle cx="84.63" cy="35.57" r="4.72" fill="#009688" opacity="0.85"/><circle cx="47.27" cy="17.76" r="4.49" fill="#c1cd23" opacity="0.85"/><circle cx="57.9" cy="24.85" r="5.86" fill="#c1cd23" opacity="0.85"/><circle cx="12.29" cy="61.94" r="3.69" fill="#009688" opacity="0.85"/><circle cx="101.41" cy="36.99" r="2.65" fill="#009688" opacity="0.85"/><circle cx="30.24" cy="41.29" r="6.23" fill="#c1cd23" opacity="0.85"/><circle cx="14.24" cy="67.15" r="5.3" fill="#c1cd23" opacity="0.85"/><circle cx="61.62" cy="45.1" r="2.54" fill="#5e9732" opacity="0.85"/><circle cx="31.65" cy="31.9" r="3.45" fill="#c1cd23" opacity="0.85"/><circle cx="46.86" cy="58.52" r="4" fill="#009688" opacity="0.85"/><circle cx="63.09" cy="35.32" r="4.14" fill="#009688" opacity="0.85"/><circle cx="66" cy="3.03" r="3.52" fill="#5e9732" opacity="0.85"/><circle cx="29.85" cy="54.38" r="5.05" fill="#5e9732" opacity="0.85"/><circle cx="4.01" cy="53.08" r="3.23" fill="#5e9732" opacity="0.85"/><circle cx="18.46" cy="13.92" r="3.1" fill="#009688" opacity="0.85"/><circle cx="91.34" cy="65.79" r="3.97" fill="#009688" opacity="0.85"/></g><rect x="398" y="150" width="132" height="100" rx="6" fill="#ffffff"/><rect x="398.5" y="150.5" width="131" height="99" rx="6" fill="none" stroke="#e6e1db"/><text x="408" y="166" font-family="Oxygen, system-ui, sans-serif" font-size="8.5" font-weight="700" fill="#776d64" text-anchor="start">G x E VARIATION</text><rect x="414" y="234" width="100" height="1" rx="0" fill="#d5cec6"/><rect x="414" y="172" width="1" height="62" rx="0" fill="#d5cec6"/><circle cx="438.59" cy="207.36" r="2.25" fill="#66489d" opacity="0.45"/><circle cx="511.98" cy="195.07" r="1.84" fill="#5e9732" opacity="0.79"/><circle cx="510.97" cy="217.69" r="2.77" fill="#66489d" opacity="0.43"/><circle cx="447.76" cy="223.67" r="3.13" fill="#f78e1e" opacity="0.48"/><circle cx="500.32" cy="193.65" r="1.81" fill="#f78e1e" opacity="0.79"/><circle cx="497.17" cy="211.97" r="1.68" fill="#5e9732" opacity="0.68"/><circle cx="480.99" cy="218.88" r="3.11" fill="#f78e1e" opacity="0.57"/><circle cx="438.29" cy="220.02" r="2.16" fill="#66489d" opacity="0.76"/><circle cx="496.3" cy="214.13" r="3.02" fill="#66489d" opacity="0.55"/><circle cx="445.51" cy="231.66" r="2.67" fill="#f78e1e" opacity="0.6"/><circle cx="479.11" cy="203.2" r="2.78" fill="#5e9732" opacity="0.57"/><circle cx="442.83" cy="193.59" r="2.16" fill="#5e9732" opacity="0.59"/><circle cx="459.66" cy="230.77" r="3.51" fill="#f78e1e" opacity="0.62"/><circle cx="432.45" cy="231.28" r="2.54" fill="#f78e1e" opacity="0.5"/><circle cx="425.65" cy="231.8" r="2.72" fill="#66489d" opacity="0.9"/><circle cx="441.32" cy="209.8" r="3.55" fill="#66489d" opacity="0.69"/><circle cx="458.38" cy="212.14" r="2.3" fill="#f78e1e" opacity="0.89"/><circle cx="455.53" cy="206.52" r="2.4" fill="#66489d" opacity="0.8"/><circle cx="425.45" cy="201.83" r="3.37" fill="#f78e1e" opacity="0.43"/><circle cx="433.15" cy="195.94" r="1.97" fill="#f78e1e" opacity="0.76"/><circle cx="472.86" cy="214.11" r="3.51" fill="#66489d" opacity="0.6"/><circle cx="438.37" cy="208.83" r="3.47" fill="#5e9732" opacity="0.43"/><circle cx="483.23" cy="205.22" r="1.86" fill="#5e9732" opacity="0.54"/><circle cx="434.18" cy="198.27" r="2.73" fill="#f78e1e" opacity="0.51"/><circle cx="509.1" cy="194.08" r="1.94" fill="#f78e1e" opacity="0.43"/><circle cx="448.97" cy="180.03" r="1.93" fill="#f78e1e" opacity="0.88"/><circle cx="461.4" cy="209.86" r="1.73" fill="#66489d" opacity="0.51"/><circle cx="451.6" cy="205.01" r="2.77" fill="#f78e1e" opacity="0.5"/><circle cx="486.99" cy="175.68" r="1.82" fill="#5e9732" opacity="0.72"/><circle cx="449.68" cy="197.99" r="2.8" fill="#f78e1e" opacity="0.64"/><rect x="102" y="262" width="286" height="76" rx="6" fill="#ffffff"/><rect x="102.5" y="262.5" width="285" height="75" rx="6" fill="none" stroke="#e6e1db"/><text x="112" y="278" font-family="Oxygen, system-ui, sans-serif" font-size="8.5" font-weight="700" fill="#776d64" text-anchor="start">FUNCTION &amp; STRUCTURE</text><rect x="114" y="282" width="180" height="8" rx="2" fill="#e6e1db"/><rect x="114" y="282" width="147.6" height="8" rx="2" fill="#5e9732"/><rect x="114" y="298" width="180" height="8" rx="2" fill="#e6e1db"/><rect x="114" y="298" width="104.4" height="8" rx="2" fill="#5e9732"/><rect x="114" y="314" width="180" height="8" rx="2" fill="#e6e1db"/><rect x="114" y="314" width="127.8" height="8" rx="2" fill="#5e9732"/><rect x="114" y="330" width="180" height="8" rx="2" fill="#e6e1db"/><rect x="114" y="330" width="72" height="8" rx="2" fill="#5e9732"/><rect x="306" y="282" width="8.8" height="7.6" rx="1" fill="#5e9732" opacity="0.56"/><rect x="306" y="290.8" width="8.8" height="7.6" rx="1" fill="#009688" opacity="0.71"/><rect x="306" y="299.6" width="8.8" height="7.6" rx="1" fill="#5e9732" opacity="0.4"/><rect x="306" y="308.4" width="8.8" height="7.6" rx="1" fill="#5e9732" opacity="0.38"/><rect x="306" y="317.2" width="8.8" height="7.6" rx="1" fill="#5e9732" opacity="0.37"/><rect x="316" y="282" width="8.8" height="7.6" rx="1" fill="#5e9732" opacity="0.42"/><rect x="316" y="290.8" width="8.8" height="7.6" rx="1" fill="#5e9732" opacity="0.39"/><rect x="316" y="299.6" width="8.8" height="7.6" rx="1" fill="#009688" opacity="0.85"/><rect x="316" y="308.4" width="8.8" height="7.6" rx="1" fill="#5e9732" opacity="0.59"/><rect x="316" y="317.2" width="8.8" height="7.6" rx="1" fill="#009688" opacity="0.91"/><rect x="326" y="282" width="8.8" height="7.6" rx="1" fill="#5e9732" opacity="0.34"/><rect x="326" y="290.8" width="8.8" height="7.6" rx="1" fill="#5e9732" opacity="0.3"/><rect x="326" y="299.6" width="8.8" height="7.6" rx="1" fill="#5e9732" opacity="0.36"/><rect x="326" y="308.4" width="8.8" height="7.6" rx="1" fill="#009688" opacity="0.79"/><rect x="326" y="317.2" width="8.8" height="7.6" rx="1" fill="#5e9732" opacity="0.26"/><rect x="336" y="282" width="8.8" height="7.6" rx="1" fill="#5e9732" opacity="0.57"/><rect x="336" y="290.8" width="8.8" height="7.6" rx="1" fill="#5e9732" opacity="0.53"/><rect x="336" y="299.6" width="8.8" height="7.6" rx="1" fill="#5e9732" opacity="0.32"/><rect x="336" y="308.4" width="8.8" height="7.6" rx="1" fill="#009688" opacity="0.81"/><rect x="336" y="317.2" width="8.8" height="7.6" rx="1" fill="#5e9732" opacity="0.3"/><rect x="346" y="282" width="8.8" height="7.6" rx="1" fill="#5e9732" opacity="0.47"/><rect x="346" y="290.8" width="8.8" height="7.6" rx="1" fill="#009688" opacity="0.67"/><rect x="346" y="299.6" width="8.8" height="7.6" rx="1" fill="#5e9732" opacity="0.61"/><rect x="346" y="308.4" width="8.8" height="7.6" rx="1" fill="#009688" opacity="0.81"/><rect x="346" y="317.2" width="8.8" height="7.6" rx="1" fill="#5e9732" opacity="0.28"/><rect x="356" y="282" width="8.8" height="7.6" rx="1" fill="#5e9732" opacity="0.47"/><rect x="356" y="290.8" width="8.8" height="7.6" rx="1" fill="#5e9732" opacity="0.52"/><rect x="356" y="299.6" width="8.8" height="7.6" rx="1" fill="#009688" opacity="0.9"/><rect x="356" y="308.4" width="8.8" height="7.6" rx="1" fill="#009688" opacity="0.64"/><rect x="356" y="317.2" width="8.8" height="7.6" rx="1" fill="#5e9732" opacity="0.29"/><rect x="366" y="282" width="8.8" height="7.6" rx="1" fill="#5e9732" opacity="0.34"/><rect x="366" y="290.8" width="8.8" height="7.6" rx="1" fill="#009688" opacity="0.65"/><rect x="366" y="299.6" width="8.8" height="7.6" rx="1" fill="#009688" opacity="0.67"/><rect x="366" y="308.4" width="8.8" height="7.6" rx="1" fill="#009688" opacity="0.76"/><rect x="366" y="317.2" width="8.8" height="7.6" rx="1" fill="#5e9732" opacity="0.35"/><rect x="398" y="262" width="132" height="76" rx="6" fill="#ffffff"/><rect x="398.5" y="262.5" width="131" height="75" rx="6" fill="none" stroke="#e6e1db"/><text x="408" y="278" font-family="Oxygen, system-ui, sans-serif" font-size="8.5" font-weight="700" fill="#776d64" text-anchor="start">CART &gt; KOROS</text><rect x="410" y="284" width="92" height="4" rx="2" fill="#9d9389" opacity="0.5"/><rect x="410" y="295" width="74" height="4" rx="2" fill="#9d9389" opacity="0.5"/><rect x="410" y="306" width="60" height="4" rx="2" fill="#9d9389" opacity="0.5"/><rect x="410" y="314" width="108" height="18" rx="4" fill="#007dc3" opacity="0.9"/><text x="464" y="326" font-family="Oxygen, system-ui, sans-serif" font-size="8" font-weight="700" fill="#ffffff" text-anchor="middle">hand off</text></svg>